<svg id="Новый" xmlns="http://www.w3.org/2000/svg" xmlns:xlink="http://www.w3.org/1999/xlink" viewBox="0 0 678.63 622"><defs><style>.cls-1,.cls-2,.cls-3,.cls-4,.cls-5{fill-rule:evenodd;}.cls-1{fill:url(#linear-gradient);}.cls-2{fill:url(#radial-gradient);}.cls-3{fill:url(#radial-gradient-2);}.cls-4{fill:url(#radial-gradient-3);}.cls-5{fill:url(#radial-gradient-4);}.cls-6{fill:none;}.cls-7{fill:url(#linear-gradient-2);}.cls-8{fill:url(#linear-gradient-3);}.cls-9{fill:url(#radial-gradient-5);}.cls-10{fill:url(#radial-gradient-6);}.cls-11{fill:url(#radial-gradient-7);}.cls-12{fill:url(#radial-gradient-8);}.cls-13{fill:#414042;}</style><linearGradient id="linear-gradient" x1="2200.88" y1="918.79" x2="2234.49" y2="918.79" gradientTransform="translate(-98.02 333.92) rotate(-8.71)" gradientUnits="userSpaceOnUse"><stop offset="0" stop-color="#e7483c"/><stop offset="0.71" stop-color="#b61b2c"/><stop offset="1" stop-color="#e7483c"/></linearGradient><radialGradient id="radial-gradient" cx="2147.19" cy="851.96" r="39.67" gradientTransform="translate(-109.15 421.58) rotate(-11.19)" gradientUnits="userSpaceOnUse"><stop offset="0.47" stop-color="#1d80bf"/><stop offset="0.94" stop-color="#146192"/></radialGradient><radialGradient id="radial-gradient-2" cx="2218.44" cy="1244.44" r="57.52" gradientTransform="translate(-109.53 285.32) rotate(-7.47)" xlink:href="#radial-gradient"/><radialGradient id="radial-gradient-3" cx="2093.27" cy="1342.67" r="90.48" gradientTransform="translate(-23.66 98.97) rotate(-2.79)" xlink:href="#radial-gradient"/><radialGradient id="radial-gradient-4" cx="2288.11" cy="967.88" r="31.96" gradientTransform="matrix(1, 0, 0, 1, 0, 0)" xlink:href="#radial-gradient"/><linearGradient id="linear-gradient-2" x1="1668.68" y1="1107.72" x2="2061.75" y2="1107.72" gradientTransform="matrix(1, 0, 0, 1, 0, 0)" xlink:href="#linear-gradient"/><linearGradient id="linear-gradient-3" x1="1730.06" y1="1089.33" x2="2068.02" y2="1089.33" gradientTransform="matrix(1, 0, 0, 1, 0, 0)" xlink:href="#linear-gradient"/><radialGradient id="radial-gradient-5" cx="2158.09" cy="922.44" r="86.95" gradientTransform="matrix(1, 0, 0, 1, 0, 0)" xlink:href="#radial-gradient"/><radialGradient id="radial-gradient-6" cx="2149.53" cy="1259.49" r="92.55" gradientTransform="matrix(1, 0, 0, 1, 0, 0)" xlink:href="#radial-gradient"/><radialGradient id="radial-gradient-7" cx="2117.36" cy="949.83" r="61.5" gradientTransform="matrix(1, 0, 0, 1, 0, 0)" xlink:href="#radial-gradient"/><radialGradient id="radial-gradient-8" cx="2020.18" cy="1234.73" r="123.47" gradientTransform="matrix(1, 0, 0, 1, 0, 0)" xlink:href="#radial-gradient"/></defs><title>logo</title><path class="cls-1" d="M2255,976.4a241.35,241.35,0,0,0-1.93-51.26A222.21,222.21,0,0,0,2240,874.66c-5.12-12.93-11.71-25-21-35.51-.7-.8-1.48-1.53-2.22-2.29l-1.55-1.56a220.43,220.43,0,0,0,2.63,79.45A291.64,291.64,0,0,1,2255,976.4Z" transform="translate(-1668.68 -794.21)"/><path class="cls-2" d="M2157.51,856.8a306.68,306.68,0,0,1,36.55,30.27c-11.64-36.88-29.55-69.61-62.76-92.86.49,6.39,2.38,12.28,4.36,18.12A201.91,201.91,0,0,0,2157.51,856.8Z" transform="translate(-1668.68 -794.21)"/><path class="cls-3" d="M2303,1174.28c-18.69,7.87-34.87,19.32-49.93,32.35a309.75,309.75,0,0,1-57.93,82.64c34.41-13.64,63.37-35.08,87.08-63.82,11.53-14,20.59-29.48,25.36-47.17.47-1.74,1.73-4.12.51-5.21S2304.7,1173.58,2303,1174.28Z" transform="translate(-1668.68 -794.21)"/><path class="cls-4" d="M2254.55,1303.74c-9.22-1.53-18.48-1.12-27.71,0-19.88,2.41-39,7.64-58,14.19-2.81,1-5.59,2-8.38,3.07-22.55,15-70,35.53-68.3,34.89.52.42,26.4,2.91,38.5,2.27a214.22,214.22,0,0,0,68.33-14.64c20.35-8.1,39-18.92,53.39-35.87a35.86,35.86,0,0,1,2.9-2.73Z" transform="translate(-1668.68 -794.21)"/><path class="cls-5" d="M2301.66,1006.66a207.52,207.52,0,0,0,8-34.35c2-13.62,2.55-27.27-.44-40.85-.13-.62-.37-1.21-.73-2.35a169.3,169.3,0,0,0-14.34,18.5,249.6,249.6,0,0,0-29,58c-.12.34-.23.68-.33,1Z" transform="translate(-1668.68 -794.21)"/><circle class="cls-6" cx="494.11" cy="527.35" r="8.94"/><path class="cls-7" d="M2061.75,1409.48a326.41,326.41,0,0,1-233-39.14c-155.33-92.09-206.37-292.51-114.28-447.87a327.49,327.49,0,0,1,130.1-123.23l20.16,38.94c-90.55,47.22-152.37,142-152.37,251.15,0,156.33,126.72,283,283,283a284.35,284.35,0,0,0,57.42-5.83Z" transform="translate(-1668.68 -794.21)"/><path class="cls-8" d="M1770.79,1088.73c0,124.07,100.58,224.65,224.65,224.65a225.37,225.37,0,0,0,45.45-4.6l.89,4.3,7.49,36.17a266.65,266.65,0,0,1-53.83,5.46c-146.57,0-265.38-118.81-265.38-265.38s118.81-265.38,265.38-265.38A265.39,265.39,0,0,1,2068,834l-11,38.63a224.8,224.8,0,0,0-61.6-8.55C1871.37,864.08,1770.79,964.66,1770.79,1088.73Z" transform="translate(-1668.68 -794.21)"/><path class="cls-9" d="M2247.68,1006.66h-43a225.33,225.33,0,0,0-136.14-130.43l13-38A266.05,266.05,0,0,1,2247.68,1006.66Z" transform="translate(-1668.68 -794.21)"/><path class="cls-10" d="M2247.47,1172.67a265.92,265.92,0,0,1-185.55,173.64l-10.34-40a225.16,225.16,0,0,0,152.3-133.64Z" transform="translate(-1668.68 -794.21)"/><path class="cls-11" d="M2184.11,1005.59h-41a170,170,0,0,0-92.52-77.13l11.78-34.39A207,207,0,0,1,2184.11,1005.59Z" transform="translate(-1668.68 -794.21)"/><path class="cls-12" d="M2183.8,1173.76A206.42,206.42,0,0,1,1856.56,1242l25.14-27.65A169.49,169.49,0,0,0,2142,1173.76Z" transform="translate(-1668.68 -794.21)"/><circle class="cls-6" cx="326.76" cy="294.51" r="282.87"/><path class="cls-6" d="M2220.09,1088.73a224.49,224.49,0,0,1-168.51,217.58q-5.29,1.37-10.69,2.47a225.37,225.37,0,0,1-45.45,4.6c-124.07,0-224.65-100.58-224.65-224.65s100.58-224.65,224.65-224.65a224.8,224.8,0,0,1,61.6,8.55q5.79,1.65,11.45,3.6a224.43,224.43,0,0,1,151.6,212.5Z" transform="translate(-1668.68 -794.21)"/><path class="cls-13" d="M1856.51,1142H1837v-103.2h35.38l21.55,82.1h0l21.28-82.1h35.38V1142h-19.48v-95.43h0l-26,95.43h-22.56l-26.12-95h0Z" transform="translate(-1668.68 -794.21)"/><path class="cls-13" d="M1993.69,1142h-21.24v-103.2h70.17v16h-48.93Z" transform="translate(-1668.68 -794.21)"/><path class="cls-13" d="M2089.9,1142h-24.28l24-42.06-.29,0-38.22-61.16h25.14l23.59,40.36h0l20.86-40.36h23Z" transform="translate(-1668.68 -794.21)"/><path class="cls-13" d="M2164.78,1142h-10.62v-103.2h85.25V1142h-21.24v-87.23H2175.4V1142Z" transform="translate(-1668.68 -794.21)"/><path class="cls-13" d="M2272.67,1142H2262v-103.2h85.25V1142h-21.24v-87.23h-42.77V1142Z" transform="translate(-1668.68 -794.21)"/></svg>